{
    "accessors": [
        {
            "bufferView": 2,
            "byteOffset": 0,
            "componentType": 5123,
            "count": 3090,
            "max": [
                2088
            ],
            "min": [
                0
            ],
            "name": "accessor_buffer_Monkey_0",
            "type": "SCALAR"
        },
        {
            "bufferView": 1,
            "byteOffset": 0,
            "componentType": 5126,
            "count": 2089,
            "max": [
                0.999725341796875,
                1.0,
                0.9864741563796997
            ],
            "min": [
                -0.992402970790863,
                -1.0,
                -1.0
            ],
            "name": "accessor_buffer_Monkey_NORMAL_0",
            "type": "VEC3"
        },
        {
            "bufferView": 0,
            "byteOffset": 0,
            "componentType": 5126,
            "count": 2089,
            "max": [
                1.0,
                1.0,
                1.0
            ],
            "min": [
                -1.0,
                -4.3671875,
                -1.0
            ],
            "name": "accessor_buffer_Monkey_POSITION_0",
            "type": "VEC3"
        }
    ],
    "asset": {
        "copyright": "",
        "generator": "blendergltf v1.2.0",
        "version": "2.0"
    },
    "bufferViews": [
        {
            "buffer": 0,
            "byteLength": 25068,
            "byteOffset": 0,
            "byteStride": 12,
            "name": "bufferView_buffer_Monkey_POSITION_0",
            "target": 34962
        },
        {
            "buffer": 0,
            "byteLength": 25068,
            "byteOffset": 25068,
            "byteStride": 12,
            "name": "bufferView_buffer_Monkey_NORMAL_0",
            "target": 34962
        },
        {
            "buffer": 0,
            "byteLength": 6184,
            "byteOffset": 50136,
            "name": "bufferView_buffer_Monkey_0",
            "target": 34963
        }
    ],
    "buffers": [
        {
            "byteLength": 56320,
            "name": "buffer_Monkey",
            "uri": "buffer_Monkey.bin"
        }
    ],
    "meshes": [
        {
            "name": "Monkey",
            "primitives": [
                {
                    "attributes": {
                        "NORMAL": 1,
                        "POSITION": 2
                    },
                    "indices": 0,
                    "mode": 4
                }
            ]
        }
    ],
    "nodes": [
        {
            "mesh": 0,
            "name": "Monkey",
            "rotation": [
                4.750302551315144e-08,
                4.7503014855010406e-08,
                0.7071067094802856,
                0.7071068286895752
            ],
            "scale": [
                1.0,
                1.0,
                1.0
            ],
            "translation": [
                -3.0,
                0.0,
                0.0
            ]
        }
    ],
    "scene": 0,
    "scenes": [
        {
            "extras": {
                "background_color": [
                    0.05087608844041824,
                    0.05087608844041824,
                    0.05087608844041824
                ],
                "frames_per_second": 24
            },
            "name": "Scene",
            "nodes": [
                0
            ]
        }
    ]
}
